<svg id="Layer_1" data-name="Layer 1" xmlns="http://www.w3.org/2000/svg" viewBox="0 0 336.6 76.31"><defs><style>.cls-1{fill:none;stroke:#3d4752;stroke-miterlimit:10;stroke-width:0.9px;}.cls-2{fill:#3d4752;}.cls-3{fill:#fcd1a5;}</style></defs><title>erd-systems</title><line class="cls-1" x1="81.97" y1="33.07" x2="95.05" y2="46.55"/><line class="cls-1" x1="82" y1="46.55" x2="265.63" y2="46.55"/><line class="cls-1" x1="95.05" y1="46.55" x2="81.97" y2="60.04"/><path class="cls-2" d="M3.49,4.46c0-1.13-1.3-1-2.43-1v2c1.13,0,2.4.12,2.43-1M3.24,1.92c0-1-1.17-.86-2.17-.86V2.81C2.09,2.82,3.24,2.93,3.24,1.92ZM4.3,4.5c0,1.84-2.15,1.64-4,1.63V.39h2c1,0,1.77.4,1.8,1.45A1.3,1.3,0,0,1,3,3.1,1.32,1.32,0,0,1,4.3,4.5Z"/><path class="cls-2" d="M6.7,5.62A1.09,1.09,0,0,0,7.81,4.29c-.83,0-1.9,0-1.9.73,0,.44.35.59.79.6M5.14,5c0-1.24,1.4-1.26,2.67-1.3,0-.65-.35-.95-.95-.95a1.6,1.6,0,0,0-1.09.45l-.4-.49a2.26,2.26,0,0,1,1.57-.58,1.42,1.42,0,0,1,1.6,1.51A23.93,23.93,0,0,0,8.6,6.12H7.91a2.56,2.56,0,0,1-.06-.55h0a1.47,1.47,0,0,1-1.29.65C5.74,6.22,5.14,5.86,5.14,5Z"/><path class="cls-2" d="M9.81,6.12c0-1.28,0-2.61,0-3.84h.72c0,.16,0,.48,0,.65h0A1.3,1.3,0,0,1,12,2.21l0,.7a1.1,1.1,0,0,0-1.43,1.19v2H9.81"/><polyline class="cls-2" points="13.52 3.95 13.55 3.95 15.16 2.28 16.18 2.28 14.38 4.03 16.33 6.12 15.28 6.12 13.55 4.13 13.52 4.13 13.52 5.13 13.52 6.12 12.76 6.12 12.76 3.06 12.76 0 13.52 0 13.52 1.98 13.52 3.95"/><path class="cls-2" d="M18.6,2.18c1.3,0,1.9.87,1.84,2.25h-3A1.2,1.2,0,0,0,18.64,5.6,1.28,1.28,0,0,0,19.76,5l.53.43a1.92,1.92,0,0,1-1.65.79,1.86,1.86,0,0,1-2-2,1.86,1.86,0,0,1,2-2m1.08,1.68a1.07,1.07,0,0,0-1.54-1,1.12,1.12,0,0,0-.75,1Z"/><path class="cls-2" d="M21.51,6.12c0-1.28,0-2.61,0-3.84h.72c0,.16,0,.48,0,.65h0a1.3,1.3,0,0,1,1.47-.72l0,.7a1.1,1.1,0,0,0-1.43,1.19v2h-.76"/><polyline class="cls-2" points="24.51 0.39 25.18 0.39 25.18 1.4 25.18 2.41 24.51 2.41 24.51 1.4 24.51 0.39"/><path class="cls-2" d="M26.43,3.81c-.5-1.26.95-2,2.14-1.47a1.3,1.3,0,0,1,.6.47l-.53.45a1,1,0,0,0-.89-.48c-.38,0-.71.12-.71.5,0,.59.92.51,1.39.73a1.08,1.08,0,0,1,.78,1c.06,1.56-2.45,1.51-3.08.55l.54-.46a1.24,1.24,0,0,0,1,.53c.42,0,.76-.14.76-.56,0-.73-1.27-.51-1.76-.95a.84.84,0,0,1-.26-.3"/><path class="cls-3" d="M68,16.23A14.45,14.45,0,0,1,82.46,30.69V61.84A14.45,14.45,0,0,1,68,76.31H14.47A14.48,14.48,0,0,1,0,61.84V30.69A14.48,14.48,0,0,1,14.47,16.23Z"/><path class="cls-2" d="M31.68,44.25c0-1.1-1.23-1-2.34-1v2c1.12,0,2.34.1,2.34-1m.87,0c0,1.62-1.49,1.81-3.21,1.74v2.7h-.86V42.54h1.87C31.63,42.55,32.55,43,32.55,44.25Z"/><path class="cls-2" d="M34.9,44.45c1.39,0,2,.94,2,2.41H33.6a1.29,1.29,0,0,0,1.34,1.25,1.37,1.37,0,0,0,1.2-.62l.57.46a2.06,2.06,0,0,1-1.77.84,2.17,2.17,0,0,1,0-4.34m1.15,1.81a1.14,1.14,0,0,0-1.65-1.07,1.2,1.2,0,0,0-.8,1.07Z"/><path class="cls-2" d="M38,48.68c0-1.37,0-2.79,0-4.11h.77c0,.17,0,.51,0,.69h0a1.39,1.39,0,0,1,1.58-.77l0,.76a1.18,1.18,0,0,0-1.53,1.28v2.16H38"/><path class="cls-2" d="M41,46.2c-.54-1.35,1-2.13,2.29-1.57a1.4,1.4,0,0,1,.64.5l-.56.48a1.1,1.1,0,0,0-1-.51c-.41,0-.76.13-.76.54,0,.63,1,.55,1.48.78A1.16,1.16,0,0,1,44,47.47c.06,1.68-2.62,1.62-3.3.59l.58-.49a1.33,1.33,0,0,0,1.09.57c.45,0,.82-.15.82-.6,0-.78-1.36-.55-1.88-1A.9.9,0,0,1,41,46.2"/><path class="cls-2" d="M47,48.11a1.49,1.49,0,1,0-1.37-1.49A1.32,1.32,0,0,0,47,48.11m0-3.65a2.17,2.17,0,1,1-2.21,2.16A2,2,0,0,1,47,44.45Z"/><path class="cls-2" d="M50.3,48.68c0-1.37,0-2.79,0-4.11H51c0,.17,0,.49,0,.68h0a1.44,1.44,0,0,1,1.34-.79c1,0,1.54.65,1.54,1.68v2.55h-.82V46.4c0-.73-.21-1.26-.94-1.26s-1.1.61-1.1,1.35v2.19H50.3"/><path class="cls-3" d="M322.13,16.23A14.45,14.45,0,0,1,336.6,30.69V61.84a14.45,14.45,0,0,1-14.47,14.47H268.61a14.48,14.48,0,0,1-14.47-14.47V30.69a14.48,14.48,0,0,1,14.47-14.47Z"/><path class="cls-2" d="M279.17,47c0-1.21-1.4-1-2.6-1V48.1c1.22,0,2.57.13,2.6-1.06m-.28-2.72c0-1.05-1.26-.92-2.33-.92v1.87C277.67,45.28,278.9,45.41,278.9,44.32ZM280,47.08c0,2-2.3,1.76-4.33,1.74V42.68h2.12c1.1,0,1.9.43,1.93,1.55a1.39,1.39,0,0,1-1.08,1.35A1.41,1.41,0,0,1,280,47.08Z"/><path class="cls-2" d="M281.66,42.7a.54.54,0,0,1,.55.53.54.54,0,1,1-.55-.53m.41,6.13h-.82V44.71h.82v4.11Z"/><path class="cls-2" d="M283.49,48.83c0-1.37,0-2.79,0-4.11h.77c0,.17,0,.51,0,.69h0a1.39,1.39,0,0,1,1.58-.77l0,.76a1.18,1.18,0,0,0-1.53,1.28v2.16h-.82"/><path class="cls-2" d="M287.84,48.89c-.8,0-1.21-.46-1.2-1.28V45.38h-.79v-.67h.79V43.53h.81v1.18h1.09v.67h-1.09v2.14c0,.47.14.69.58.69a1.17,1.17,0,0,0,.48-.1l0,.67a2.08,2.08,0,0,1-.69.11"/><path class="cls-2" d="M291.33,45.29c-.69,0-1.11.61-1.11,1.35v2.18h-.82V42.26h.82c0,1,0,2.08,0,3.07a1.45,1.45,0,0,1,1.3-.74,1.47,1.47,0,0,1,1.54,1.68v2.55h-.82V46.55c0-.72-.21-1.26-.93-1.26"/><path class="cls-2" d="M296.6,48.25a1.49,1.49,0,0,0,0-3,1.49,1.49,0,0,0,0,3m.14.69a1.71,1.71,0,0,1-1.45-.73h0v2.7h-.82v-6.2h.8v.64h0a1.65,1.65,0,0,1,1.48-.76,2.17,2.17,0,0,1,0,4.34Z"/><polyline class="cls-2" points="300.79 48.83 299.97 48.83 299.97 45.54 299.97 42.26 300.79 42.26 300.79 45.54 300.79 48.83"/><path class="cls-2" d="M303.58,48.29a1.17,1.17,0,0,0,1.19-1.42c-.89,0-2,0-2,.78,0,.47.37.63.84.64m-1.68-.62c0-1.33,1.5-1.35,2.86-1.39.05-.69-.37-1-1-1a1.71,1.71,0,0,0-1.17.48l-.43-.52a2.42,2.42,0,0,1,1.68-.62,1.53,1.53,0,0,1,1.72,1.61,25.63,25.63,0,0,0,.06,2.61h-.74a2.74,2.74,0,0,1-.07-.59h0a1.58,1.58,0,0,1-1.38.69C302.55,48.93,301.91,48.54,301.91,47.66Z"/><path class="cls-2" d="M306.64,46.77a2,2,0,0,1,2.2-2.17,2,2,0,0,1,1.54.68l-.59.48a1.13,1.13,0,0,0-.95-.47,1.49,1.49,0,0,0,0,3,1.18,1.18,0,0,0,1-.45l.55.49a1.9,1.9,0,0,1-1.54.64,2,2,0,0,1-2.21-2.17"/><path class="cls-2" d="M313.06,44.6c1.39,0,2,.94,2,2.41h-3.26a1.29,1.29,0,0,0,1.34,1.25,1.37,1.37,0,0,0,1.2-.62l.57.46a2.06,2.06,0,0,1-1.77.84,2.17,2.17,0,0,1,0-4.34m1.15,1.81a1.14,1.14,0,0,0-1.65-1.07,1.2,1.2,0,0,0-.8,1.07Z"/></svg>