<svg id="Layer_1" data-name="Layer 1" xmlns="http://www.w3.org/2000/svg" viewBox="0 0 336.6 80.37"><defs><style>.cls-1{fill:#3d4752;}.cls-2{fill:none;}.cls-2,.cls-3{stroke:#3d4752;stroke-miterlimit:10;stroke-width:0.9px;}.cls-3{fill:#fcd1a5;}</style></defs><title>erd-systems</title><path class="cls-1" d="M36.55,17.34c0-1-1.15-.92-2.19-.92v1.85c1,0,2.19.09,2.19-.94m.81,0c0,1.51-1.39,1.69-3,1.62v2.52h-.8V15.74h1.75C36.5,15.76,37.36,16.15,37.36,17.34Z"/><path class="cls-1" d="M39.55,17.53c1.3,0,1.9.87,1.84,2.25h-3a1.2,1.2,0,0,0,1.25,1.17,1.28,1.28,0,0,0,1.12-.58l.53.43a1.92,1.92,0,0,1-1.65.79,1.86,1.86,0,0,1-2-2,1.86,1.86,0,0,1,2-2m1.08,1.68a1.07,1.07,0,0,0-1.54-1,1.12,1.12,0,0,0-.75,1Z"/><path class="cls-1" d="M42.45,21.47c0-1.28,0-2.61,0-3.84h.72c0,.16,0,.48,0,.65h0a1.3,1.3,0,0,1,1.47-.72l0,.7a1.1,1.1,0,0,0-1.43,1.19v2h-.76"/><path class="cls-1" d="M45.25,19.16c-.5-1.26.95-2,2.14-1.47a1.3,1.3,0,0,1,.6.47l-.53.45a1,1,0,0,0-.89-.48c-.38,0-.71.12-.71.5,0,.59.92.51,1.39.73a1.08,1.08,0,0,1,.78,1c.06,1.56-2.45,1.51-3.08.55l.54-.46a1.24,1.24,0,0,0,1,.53c.42,0,.76-.14.76-.56,0-.73-1.27-.51-1.76-.95a.84.84,0,0,1-.26-.3"/><path class="cls-1" d="M50.8,20.94a1.24,1.24,0,0,0,1.28-1.39,1.28,1.28,0,1,0-2.56,0,1.24,1.24,0,0,0,1.28,1.39m0-3.41a1.9,1.9,0,0,1,2.07,2,2.07,2.07,0,0,1-4.14,0A1.89,1.89,0,0,1,50.8,17.53Z"/><path class="cls-1" d="M53.92,21.47c0-1.28,0-2.61,0-3.84h.72c0,.16,0,.45,0,.63h0a1.34,1.34,0,0,1,1.25-.74c1,0,1.43.61,1.43,1.56v2.38h-.76V19.34c0-.68-.19-1.17-.87-1.17s-1,.57-1,1.26v2h-.76"/><polyline class="cls-1" points="276.79 20.8 279.35 20.8 279.35 21.15 279.35 21.51 275.99 21.51 275.99 18.64 275.99 15.77 276.79 15.77 276.79 18.29 276.79 20.8"/><path class="cls-1" d="M281.75,21A1.24,1.24,0,0,0,283,19.58a1.28,1.28,0,1,0-2.56,0A1.24,1.24,0,0,0,281.75,21m0-3.41a1.9,1.9,0,0,1,2.07,2,2.07,2.07,0,0,1-4.14,0A1.89,1.89,0,0,1,281.75,17.56Z"/><path class="cls-1" d="M284.63,19.59a1.88,1.88,0,0,1,2-2,1.82,1.82,0,0,1,1.44.63l-.55.45a1.05,1.05,0,0,0-.88-.44,1.24,1.24,0,0,0-1.26,1.39A1.24,1.24,0,0,0,286.7,21a1.1,1.1,0,0,0,.92-.42l.51.46a1.77,1.77,0,0,1-1.43.6,1.9,1.9,0,0,1-2.07-2"/><path class="cls-1" d="M290.16,21a1.09,1.09,0,0,0,1.11-1.33c-.83,0-1.9,0-1.9.73,0,.44.35.59.79.6m-1.56-.58c0-1.24,1.4-1.26,2.67-1.3,0-.65-.35-.95-.95-.95a1.6,1.6,0,0,0-1.09.45l-.4-.49a2.26,2.26,0,0,1,1.57-.58,1.42,1.42,0,0,1,1.6,1.51,23.92,23.92,0,0,0,.06,2.44h-.69a2.56,2.56,0,0,1-.06-.55h0a1.47,1.47,0,0,1-1.29.65C289.2,21.61,288.6,21.24,288.6,20.42Z"/><path class="cls-1" d="M294.42,21.57c-.75,0-1.13-.43-1.12-1.2V18.29h-.74v-.62h.74v-1.1h.75v1.1h1v.62h-1v2c0,.44.13.64.54.65a1.09,1.09,0,0,0,.45-.1l0,.62a1.94,1.94,0,0,1-.65.11"/><path class="cls-1" d="M296.25,15.79a.5.5,0,0,1,.51.49.51.51,0,1,1-.51-.49m.38,5.72h-.76V17.67h.76v3.84Z"/><path class="cls-1" d="M299.77,21A1.24,1.24,0,0,0,301,19.58a1.28,1.28,0,1,0-2.56,0A1.24,1.24,0,0,0,299.77,21m0-3.41a1.9,1.9,0,0,1,2.07,2,2.07,2.07,0,0,1-4.14,0A1.89,1.89,0,0,1,299.77,17.56Z"/><path class="cls-1" d="M302.9,21.51c0-1.28,0-2.61,0-3.84h.72c0,.16,0,.45,0,.63h0a1.34,1.34,0,0,1,1.25-.74c1,0,1.43.61,1.43,1.56v2.38h-.76V19.38c0-.68-.19-1.17-.87-1.17s-1,.57-1,1.26v2h-.76"/><polyline class="cls-1" points="1.06 5.74 0.26 5.74 0.26 2.87 0.26 0 1.06 0 1.06 2.87 1.06 5.74"/><path class="cls-1" d="M6.66,2.87C6.66,1.41,5.71.74,4.26.7h-1V5h1c1.44,0,2.4-.72,2.4-2.16M4.43,0C6.26.09,7.52,1,7.52,2.87a2.67,2.67,0,0,1-2,2.69,12,12,0,0,1-3.07.18V0Z"/><polyline class="cls-1" points="9.42 5.02 12.42 5.02 12.42 5.38 12.42 5.74 8.62 5.74 8.62 2.87 8.62 0 12.3 0 12.3 0.35 12.3 0.7 9.42 0.7 9.42 1.56 9.42 2.42 12.13 2.42 12.13 2.77 12.13 3.11 9.42 3.11 9.42 4.07 9.42 5.02"/><polyline class="cls-1" points="14.29 5.74 13.49 5.74 13.49 2.87 13.49 0 17.07 0 17.07 0.35 17.07 0.7 14.29 0.7 14.29 1.6 14.29 2.49 16.89 2.49 16.89 2.83 16.89 3.17 14.29 3.17 14.29 4.46 14.29 5.74"/><polyline class="cls-1" points="20.46 5.74 19.68 5.74 19.68 3.35 19.68 0.96 18.59 1.86 18.13 1.32 19.76 0 20.46 0 20.46 2.87 20.46 5.74"/><polyline class="cls-1" points="24.92 2.14 26.28 0 27.22 0 25.39 2.71 27.47 5.74 26.46 5.74 24.89 3.32 23.35 5.74 22.36 5.74 24.41 2.7 22.56 0 23.54 0"/><rect class="cls-2" x="0.45" y="27.04" width="90" height="52.88"/><line class="cls-2" x1="0.45" y1="45.04" x2="90.45" y2="45.04"/><path class="cls-1" d="M99.45,36.13a4.5,4.5,0,1,1-4.5-4.5A4.48,4.48,0,0,1,99.45,36.13Z"/><path class="cls-2" d="M99.45,36.13a4.5,4.5,0,1,1-4.5-4.5A4.48,4.48,0,0,1,99.45,36.13Z"/><path class="cls-2" d="M232.25,36.13h1.3m-5.8,0h2.7m-7.16,0H226m-7.16,0h2.66m-7.16,0H217m-7.15,0h2.7m-7.16,0h2.66m-7.16,0h2.7m-7.16,0h2.7m-7.16,0h2.66m-7.16,0h2.7m-7.16,0h2.7m-7.15,0h2.65m-7.15,0h2.7m-7.15,0h2.7m-7.15,0h2.65m-7.15,0h2.7m-7.15,0h2.7m-7.16,0h2.66m-7.16,0H150m-7.15,0h2.7m-7.16,0H141m-7.16,0h2.7m-7.15,0h2.7m-7.15,0h2.65m-7.15,0h2.7m-7.16,0h2.7m-7.15,0h2.65m-7.15,0h2.7m-7.16,0h2.7m-5.85,0h1.35"/><polygon class="cls-1" points="99.45 36.58 99.41 36.58 99.45 36.13 99.41 35.68 99.45 35.68 99.45 36.58"/><polygon class="cls-1" points="233.55 36.13 234.09 36.58 233.55 36.58 233.55 35.68 234.09 35.68 233.55 36.13"/><polygon class="cls-2" points="239.41 30.1 246.11 36.13 239.41 42.11 232.66 36.13 239.41 30.1"/><rect class="cls-2" x="246.15" y="27.04" width="90" height="52.88"/><line class="cls-2" x1="246.15" y1="45.04" x2="336.15" y2="45.04"/><rect class="cls-3" x="0.45" y="27.04" width="90" height="18"/><rect class="cls-3" x="246.15" y="27.04" width="90" height="18"/></svg>