<svg id="Layer_1" data-name="Layer 1" xmlns="http://www.w3.org/2000/svg" viewBox="0 0 336.6 70.25"><defs><style>.cls-1{fill:#3d4752;}.cls-2{fill:none;stroke:#3d4752;stroke-miterlimit:10;stroke-width:0.9px;}.cls-3{fill:#fcd1a5;}</style></defs><title>erd-systems</title><path class="cls-1" d="M1.51.28c.58,1.47,1.13,3,1.73,4.41L4.94.28H6.18V6h-.8c0-1.6,0-3.23,0-4.8L3.46,6H3C2.31,4.41,1.7,2.79,1,1.21V6H.26V.28H1.51"/><path class="cls-1" d="M7.93.29a.5.5,0,0,1,.51.49.51.51,0,0,1-1,0,.5.5,0,0,1,.5-.49M8.31,6H7.54V2.17h.76V6Z"/><path class="cls-1" d="M9.63,6c0-1.28,0-2.61,0-3.84h.72c0,.16,0,.45,0,.63h0a1.34,1.34,0,0,1,1.25-.74c1,0,1.43.61,1.43,1.56V6H12.3V3.88c0-.68-.19-1.17-.87-1.17s-1,.57-1,1.26V6H9.63"/><polyline class="cls-1" points="15.93 4.36 14.05 4.36 14.05 4.03 14.05 3.71 15.93 3.71 15.93 4.03 15.93 4.36"/><path class="cls-1" d="M18.23.28c.58,1.47,1.13,3,1.73,4.41L21.65.28H22.9V6h-.8c0-1.6,0-3.23,0-4.8L20.18,6h-.51c-.64-1.6-1.25-3.22-1.91-4.8V6H17V.28h1.25"/><path class="cls-1" d="M25.53,5.51a1.09,1.09,0,0,0,1.11-1.33c-.83,0-1.9,0-1.9.73,0,.44.35.59.79.6M24,4.92c0-1.24,1.4-1.26,2.67-1.3,0-.65-.35-.95-.95-.95a1.6,1.6,0,0,0-1.09.45l-.4-.49a2.26,2.26,0,0,1,1.57-.58,1.42,1.42,0,0,1,1.6,1.51A23.93,23.93,0,0,0,27.43,6h-.69a2.56,2.56,0,0,1-.06-.55h0a1.47,1.47,0,0,1-1.29.65C24.57,6.11,24,5.74,24,4.92Z"/><polyline class="cls-1" points="29.59 3.99 28.18 2.17 29.12 2.17 30.06 3.49 31.01 2.17 31.9 2.17 30.52 3.98 32.06 6.01 31.12 6.01 30.05 4.51 28.96 6.01 28.05 6.01"/><polyline class="cls-1" points="32.69 6.28 32.11 6.08 34.6 0 35.17 0.21"/><polyline class="cls-1" points="36.7 6.01 35.9 6.01 35.9 3.14 35.9 0.28 36.7 0.28 36.7 3.14 36.7 6.01"/><path class="cls-1" d="M37.9,1.77c0-1.43,1.6-1.93,2.91-1.46a1.65,1.65,0,0,1,.7.48l-.57.55A1.38,1.38,0,0,0,39.83.8c-.76,0-1.33.58-1,1.32s1.61.61,2.21,1.12a1.44,1.44,0,0,1,.55,1.17c0,1.54-1.67,2.07-3,1.53a2,2,0,0,1-.83-.62l.62-.53a1.6,1.6,0,0,0,1.28.67c.8,0,1.45-.68,1-1.42S39,3.44,38.37,2.88a1.44,1.44,0,0,1-.47-1.12"/><path class="cls-1" d="M45.44,5.44a2.07,2.07,0,0,0,2.18-2.3,2.17,2.17,0,1,0-4.34,0,2.07,2.07,0,0,0,2.16,2.3m2.82-3.52a3.36,3.36,0,0,1,0,2.45,3.1,3.1,0,0,1-5.62,0,3.44,3.44,0,0,1,0-2.45,3.11,3.11,0,0,1,5.62,0Z"/><line class="cls-2" x1="72" y1="43.27" x2="264.78" y2="43.27"/><path class="cls-1" d="M80.25,32.39a5.7,5.7,0,0,0-1,3.25,5.64,5.64,0,0,0,1,3.25l-.55.36a6.2,6.2,0,0,1-.86-5.56A6.51,6.51,0,0,1,79.7,32"/><polyline class="cls-1" points="83.86 37.97 83.07 37.97 83.07 35.58 83.07 33.19 81.99 34.09 81.53 33.55 83.15 32.23 83.86 32.23 83.86 35.1 83.86 37.97"/><polyline class="cls-1" points="86.53 39.04 85.88 39.04 86.44 37.02 87.2 37.02"/><polyline class="cls-1" points="90.78 37.97 90 37.97 90 35.58 90 33.19 88.91 34.09 88.45 33.55 90.08 32.23 90.78 32.23 90.78 35.1 90.78 37.97"/><path class="cls-1" d="M93.08,38.88a5.7,5.7,0,0,0,1-3.25,5.64,5.64,0,0,0-1-3.25l.55-.36a6.2,6.2,0,0,1,.86,5.56,6.51,6.51,0,0,1-.86,1.65"/><path class="cls-1" d="M101,36.3c0-1.13-1.3-1-2.43-1v2c1.13,0,2.4.12,2.43-1m-.26-2.54c0-1-1.17-.86-2.17-.86v1.75C99.62,34.66,100.76,34.77,100.76,33.76Zm1.07,2.58c0,1.84-2.15,1.64-4,1.63V32.23h2c1,0,1.77.4,1.8,1.45a1.3,1.3,0,0,1-1,1.26A1.32,1.32,0,0,1,101.83,36.34Z"/><path class="cls-1" d="M104.76,37.43A1.39,1.39,0,1,0,103.48,36a1.24,1.24,0,0,0,1.28,1.39m0-3.41a2,2,0,1,1-2.07,2A1.9,1.9,0,0,1,104.76,34Z"/><path class="cls-1" d="M107.89,38c0-1.28,0-2.61,0-3.84h.72c0,.16,0,.48,0,.65h0a1.3,1.3,0,0,1,1.47-.72l0,.7a1.1,1.1,0,0,0-1.43,1.19v2h-.76"/><path class="cls-1" d="M110.82,38c0-1.28,0-2.61,0-3.84h.72c0,.16,0,.45,0,.63h0a1.34,1.34,0,0,1,1.25-.74c1,0,1.43.61,1.43,1.56V38h-.76V35.84c0-.68-.19-1.17-.87-1.17s-1,.57-1,1.26v2h-.76"/><path class="cls-1" d="M118,32.25a.5.5,0,0,1,.51.49.51.51,0,1,1-.51-.49m.38,5.72h-.76V34.13h.76V38Z"/><path class="cls-1" d="M119.69,38c0-1.28,0-2.61,0-3.84h.72c0,.16,0,.45,0,.63h0a1.34,1.34,0,0,1,1.25-.74c1,0,1.43.61,1.43,1.56V38h-.76V35.84c0-.68-.19-1.17-.87-1.17s-1,.57-1,1.26v2h-.76"/><path class="cls-1" d="M194.58,52.81c0-1.13-1.3-1-2.43-1v2c1.13,0,2.4.12,2.43-1m-.26-2.54c0-1-1.17-.86-2.17-.86v1.75C193.18,51.18,194.32,51.29,194.32,50.28Zm1.07,2.58c0,1.84-2.15,1.64-4,1.63V48.75h2c1,0,1.77.4,1.8,1.45a1.3,1.3,0,0,1-1,1.26A1.32,1.32,0,0,1,195.39,52.85Z"/><path class="cls-1" d="M196.9,48.76a.5.5,0,0,1,.51.49.51.51,0,1,1-.51-.49m.38,5.72h-.76V50.64h.76v3.84Z"/><path class="cls-1" d="M198.6,54.48c0-1.28,0-2.61,0-3.84h.72c0,.16,0,.48,0,.65h0a1.3,1.3,0,0,1,1.47-.72l0,.7a1.1,1.1,0,0,0-1.43,1.19v2h-.76"/><path class="cls-1" d="M202.66,54.55c-.75,0-1.13-.43-1.12-1.2V51.27h-.74v-.62h.74v-1.1h.75v1.1h1v.62h-1v2c0,.44.13.64.54.65a1.09,1.09,0,0,0,.45-.1l0,.62a1.94,1.94,0,0,1-.65.11"/><path class="cls-1" d="M205.92,51.19c-.65,0-1,.57-1,1.26v2h-.76V48.36h.76c0,.95,0,1.94,0,2.87a1.35,1.35,0,0,1,1.21-.69,1.37,1.37,0,0,1,1.43,1.56v2.38h-.76V52.36c0-.67-.19-1.17-.87-1.17"/><path class="cls-1" d="M210.84,53.95a1.39,1.39,0,0,0,0-2.78,1.39,1.39,0,0,0,0,2.78m.13.64a1.59,1.59,0,0,1-1.35-.68h0v2.52h-.76V50.64h.75v.6h0a1.54,1.54,0,0,1,1.39-.7,2,2,0,0,1,0,4Z"/><polyline class="cls-1" points="214.75 54.48 213.99 54.48 213.99 51.42 213.99 48.36 214.75 48.36 214.75 51.42 214.75 54.48"/><path class="cls-1" d="M217.36,54a1.09,1.09,0,0,0,1.11-1.33c-.83,0-1.9,0-1.9.73,0,.44.35.59.79.6m-1.56-.58c0-1.24,1.4-1.26,2.67-1.3,0-.65-.35-.95-.95-.95a1.6,1.6,0,0,0-1.09.45l-.4-.49a2.26,2.26,0,0,1,1.57-.58,1.42,1.42,0,0,1,1.6,1.51,23.92,23.92,0,0,0,.06,2.44h-.69a2.56,2.56,0,0,1-.06-.55h0a1.47,1.47,0,0,1-1.29.65C216.39,54.58,215.79,54.21,215.79,53.4Z"/><path class="cls-1" d="M220.22,52.56a1.88,1.88,0,0,1,2-2,1.82,1.82,0,0,1,1.44.63l-.55.45a1.05,1.05,0,0,0-.88-.44,1.39,1.39,0,0,0,0,2.77,1.1,1.1,0,0,0,.92-.42l.51.46a1.77,1.77,0,0,1-1.43.6,1.9,1.9,0,0,1-2.07-2"/><path class="cls-1" d="M226.2,50.54c1.3,0,1.9.87,1.84,2.25h-3A1.2,1.2,0,0,0,226.24,54a1.28,1.28,0,0,0,1.12-.58l.53.43a1.92,1.92,0,0,1-1.65.79,2,2,0,0,1,0-4m1.08,1.68a1.07,1.07,0,0,0-1.54-1,1.12,1.12,0,0,0-.75,1Z"/><path class="cls-1" d="M232.95,53.95a1.39,1.39,0,1,0-1.28-1.39,1.24,1.24,0,0,0,1.28,1.39m0-3.41a2,2,0,1,1-2.07,2A1.9,1.9,0,0,1,232.95,50.54Z"/><path class="cls-1" d="M237.67,48.92c-.83,0-.66.93-.68,1.73h.89v.62H237v3.22h-.76V51.27h-.76v-.62h.76v-.8c0-1.16.74-1.77,1.91-1.52L238,49a1.35,1.35,0,0,0-.38-.06"/><path class="cls-1" d="M242.16,48.9a5.7,5.7,0,0,0-1,3.25,5.64,5.64,0,0,0,1,3.25l-.55.36a6.2,6.2,0,0,1-.86-5.56,6.5,6.5,0,0,1,.86-1.65"/><path class="cls-1" d="M245.68,49.49a.85.85,0,0,0-1.15,0c-.68.71-.72,2.57-.36,3.66a1,1,0,0,0,.94.81c1.21,0,1.21-1.83,1.1-3.13a2.3,2.3,0,0,0-.53-1.34m-2.41,3.3c-.32-1.88,0-4.2,1.85-4.2,1.53,0,2,1.43,2,3A3.17,3.17,0,0,1,246,54.39a1.79,1.79,0,0,1-1.76,0A2.3,2.3,0,0,1,243.27,52.8Z"/><polyline class="cls-1" points="248.44 55.56 247.8 55.56 248.36 53.53 249.12 53.53"/><path class="cls-1" d="M251.37,48.75c1,1.52,2,3.08,3,4.58V48.75h.8v5.73h-1c-1-1.56-2-3.14-3-4.68v4.68h-.8V48.75h1"/><path class="cls-1" d="M256.42,55.4a5.7,5.7,0,0,0,1-3.25,5.64,5.64,0,0,0-1-3.25l.55-.36a6.2,6.2,0,0,1,.86,5.56,6.51,6.51,0,0,1-.86,1.65"/><rect class="cls-3" y="16.25" width="72" height="54"/><path class="cls-1" d="M27.13,41.63c0-1-1.15-.92-2.19-.92v1.85c1,0,2.19.09,2.19-.94m.81,0c0,1.51-1.39,1.69-3,1.62v2.52h-.8V40h1.75C27.08,40.05,27.94,40.45,27.94,41.63Z"/><path class="cls-1" d="M30.12,41.83c1.3,0,1.9.87,1.84,2.25h-3a1.2,1.2,0,0,0,1.25,1.17,1.28,1.28,0,0,0,1.12-.58l.53.43a1.92,1.92,0,0,1-1.65.79,2,2,0,0,1,0-4m1.08,1.68a1.07,1.07,0,0,0-1.54-1,1.12,1.12,0,0,0-.75,1Z"/><path class="cls-1" d="M33,45.77c0-1.28,0-2.61,0-3.84h.72c0,.16,0,.48,0,.65h0a1.3,1.3,0,0,1,1.47-.72l0,.7a1.1,1.1,0,0,0-1.43,1.19v2H33"/><path class="cls-1" d="M35.83,43.46c-.5-1.26.95-2,2.14-1.47a1.3,1.3,0,0,1,.6.47L38,42.9a1,1,0,0,0-.89-.48c-.38,0-.71.12-.71.5,0,.59.92.51,1.39.73a1.08,1.08,0,0,1,.78,1c.06,1.56-2.45,1.51-3.08.55l.54-.46a1.24,1.24,0,0,0,1,.53c.42,0,.76-.14.76-.56,0-.73-1.27-.51-1.76-.95a.84.84,0,0,1-.26-.3"/><path class="cls-1" d="M41.38,45.24a1.39,1.39,0,1,0-1.28-1.39,1.24,1.24,0,0,0,1.28,1.39m0-3.41a2,2,0,1,1-2.07,2A1.9,1.9,0,0,1,41.38,41.83Z"/><path class="cls-1" d="M44.5,45.77c0-1.28,0-2.61,0-3.84h.72c0,.16,0,.45,0,.63h0a1.34,1.34,0,0,1,1.25-.74c1,0,1.43.61,1.43,1.56v2.38h-.76V43.64c0-.68-.19-1.17-.87-1.17s-1,.57-1,1.26v2H44.5"/><rect class="cls-3" x="264.6" y="16.23" width="72" height="54"/><polyline class="cls-1" points="286.31 45.04 288.87 45.04 288.87 45.39 288.87 45.75 285.5 45.75 285.5 42.88 285.5 40.02 286.31 40.02 286.31 42.53 286.31 45.04"/><path class="cls-1" d="M291.27,45.22A1.39,1.39,0,1,0,290,43.82a1.24,1.24,0,0,0,1.28,1.39m0-3.41a2,2,0,1,1-2.07,2A1.9,1.9,0,0,1,291.27,41.8Z"/><path class="cls-1" d="M294.15,43.83a1.88,1.88,0,0,1,2-2,1.82,1.82,0,0,1,1.44.63l-.55.45a1.05,1.05,0,0,0-.88-.44,1.39,1.39,0,0,0,0,2.77,1.1,1.1,0,0,0,.92-.42l.51.46a1.77,1.77,0,0,1-1.43.6,1.9,1.9,0,0,1-2.07-2"/><path class="cls-1" d="M299.68,45.25a1.09,1.09,0,0,0,1.11-1.33c-.83,0-1.9,0-1.9.73,0,.44.35.59.79.6m-1.56-.58c0-1.24,1.4-1.26,2.67-1.3,0-.65-.35-.95-.95-.95a1.6,1.6,0,0,0-1.09.45l-.4-.49a2.26,2.26,0,0,1,1.57-.58,1.42,1.42,0,0,1,1.6,1.51,23.92,23.92,0,0,0,.06,2.44h-.69a2.56,2.56,0,0,1-.06-.55h0a1.47,1.47,0,0,1-1.29.65C298.72,45.85,298.12,45.48,298.12,44.66Z"/><path class="cls-1" d="M303.93,45.81c-.75,0-1.13-.43-1.12-1.2V42.53h-.74v-.62h.74v-1.1h.75v1.1h1v.62h-1v2c0,.44.13.64.54.65a1.09,1.09,0,0,0,.45-.1l0,.62a1.94,1.94,0,0,1-.65.11"/><path class="cls-1" d="M305.76,40a.5.5,0,0,1,.51.49.51.51,0,1,1-.51-.49m.38,5.72h-.76V41.91h.76v3.84Z"/><path class="cls-1" d="M309.29,45.22A1.39,1.39,0,1,0,308,43.82a1.24,1.24,0,0,0,1.28,1.39m0-3.41a2,2,0,1,1-2.07,2A1.9,1.9,0,0,1,309.29,41.8Z"/><path class="cls-1" d="M312.41,45.75c0-1.28,0-2.61,0-3.84h.72c0,.16,0,.45,0,.63h0a1.34,1.34,0,0,1,1.25-.74c1,0,1.43.61,1.43,1.56v2.38h-.76V43.62c0-.68-.19-1.17-.87-1.17s-1,.57-1,1.26v2h-.76"/></svg>