<svg id="Layer_1" data-name="Layer 1" xmlns="http://www.w3.org/2000/svg" viewBox="0 0 336.6 70.27"><defs><style>.cls-1{fill:#d6d6d6;}.cls-2{fill:none;stroke:#3d4752;stroke-miterlimit:10;stroke-width:0.9px;}.cls-3{fill:#3d4752;}.cls-4{fill:#fcd1a5;}</style></defs><title>erd-systems</title><rect class="cls-1" y="16.27" width="99" height="54"/><rect class="cls-1" x="237.6" y="16.27" width="99" height="54"/><line class="cls-2" x1="99" y1="43.27" x2="134.57" y2="43.27"/><path class="cls-3" d="M40.63,41.65c0-1-1.15-.92-2.19-.92v1.85c1,0,2.19.09,2.19-.94m.81,0c0,1.51-1.39,1.69-3,1.62v2.52h-.8V40.06h1.75C40.58,40.07,41.44,40.47,41.44,41.65Z"/><path class="cls-3" d="M43.63,41.85c1.3,0,1.9.87,1.84,2.25h-3a1.2,1.2,0,0,0,1.25,1.17,1.28,1.28,0,0,0,1.12-.58l.53.43a1.92,1.92,0,0,1-1.65.79,2,2,0,0,1,0-4m1.08,1.68a1.07,1.07,0,0,0-1.54-1,1.12,1.12,0,0,0-.75,1Z"/><path class="cls-3" d="M46.54,45.79c0-1.28,0-2.61,0-3.84h.72c0,.16,0,.48,0,.65h0a1.3,1.3,0,0,1,1.47-.72l0,.7a1.1,1.1,0,0,0-1.43,1.19v2h-.76"/><path class="cls-3" d="M49.33,43.47c-.5-1.26.95-2,2.14-1.47a1.3,1.3,0,0,1,.6.47l-.53.45a1,1,0,0,0-.89-.48c-.38,0-.71.12-.71.5,0,.59.92.51,1.39.73a1.08,1.08,0,0,1,.78,1c.06,1.56-2.45,1.51-3.08.55l.54-.46a1.24,1.24,0,0,0,1,.53c.42,0,.76-.14.76-.56,0-.73-1.27-.51-1.76-.95a.84.84,0,0,1-.26-.3"/><path class="cls-3" d="M54.88,45.26a1.39,1.39,0,1,0-1.28-1.39,1.24,1.24,0,0,0,1.28,1.39m0-3.41a2,2,0,1,1-2.07,2A1.9,1.9,0,0,1,54.88,41.85Z"/><path class="cls-3" d="M58,45.79c0-1.28,0-2.61,0-3.84h.72c0,.16,0,.45,0,.63h0A1.34,1.34,0,0,1,60,41.85c1,0,1.43.61,1.43,1.56v2.38h-.76V43.66c0-.68-.19-1.17-.87-1.17s-1,.57-1,1.26v2H58"/><path class="cls-3" d="M116.22,32.59c1,1.52,2,3.08,3,4.58V32.59h.8v5.73h-1c-1-1.56-2-3.14-3-4.68v4.68h-.8V32.59h1"/><line class="cls-2" x1="202.03" y1="43.27" x2="237.6" y2="43.27"/><polyline class="cls-3" points="272.8 45.08 275.36 45.08 275.36 45.43 275.36 45.79 272 45.79 272 42.92 272 40.05 272.8 40.05 272.8 42.57 272.8 45.08"/><path class="cls-3" d="M277.77,45.26a1.39,1.39,0,1,0-1.28-1.39,1.24,1.24,0,0,0,1.28,1.39m0-3.41a2,2,0,1,1-2.07,2A1.9,1.9,0,0,1,277.77,41.85Z"/><path class="cls-3" d="M280.64,43.87a1.88,1.88,0,0,1,2-2,1.82,1.82,0,0,1,1.44.63l-.55.45a1.05,1.05,0,0,0-.88-.44,1.39,1.39,0,0,0,0,2.77,1.1,1.1,0,0,0,.92-.42l.51.46a1.77,1.77,0,0,1-1.43.6,1.9,1.9,0,0,1-2.07-2"/><path class="cls-3" d="M286.18,45.29A1.09,1.09,0,0,0,287.29,44c-.83,0-1.9,0-1.9.73,0,.44.35.59.79.6m-1.56-.58c0-1.24,1.4-1.26,2.67-1.3,0-.65-.35-.95-.95-.95a1.6,1.6,0,0,0-1.09.45l-.4-.49a2.26,2.26,0,0,1,1.57-.58,1.42,1.42,0,0,1,1.6,1.51,23.92,23.92,0,0,0,.06,2.44h-.69a2.56,2.56,0,0,1-.06-.55h0a1.47,1.47,0,0,1-1.29.65C285.21,45.89,284.61,45.52,284.61,44.7Z"/><path class="cls-3" d="M290.43,45.85c-.75,0-1.13-.43-1.12-1.2V42.57h-.74V42h.74v-1.1h.75V42h1v.62h-1v2c0,.44.13.64.54.65a1.09,1.09,0,0,0,.45-.1l0,.62a1.94,1.94,0,0,1-.65.11"/><path class="cls-3" d="M292.26,40.07a.5.5,0,0,1,.51.49.51.51,0,1,1-.51-.49m.38,5.72h-.76V42h.76v3.84Z"/><path class="cls-3" d="M295.78,45.26a1.39,1.39,0,1,0-1.28-1.39,1.24,1.24,0,0,0,1.28,1.39m0-3.41a2,2,0,1,1-2.07,2A1.9,1.9,0,0,1,295.78,41.85Z"/><path class="cls-3" d="M298.91,45.79c0-1.28,0-2.61,0-3.84h.72c0,.16,0,.45,0,.63h0a1.34,1.34,0,0,1,1.25-.74c1,0,1.43.61,1.43,1.56v2.38h-.76V43.66c0-.68-.19-1.17-.87-1.17s-1,.57-1,1.26v2h-.76"/><polyline class="cls-3" points="220.28 38.14 219.5 38.14 219.5 35.75 219.5 33.36 218.41 34.27 217.95 33.73 219.58 32.41 220.28 32.41 220.28 35.27 220.28 38.14"/><path class="cls-3" d="M3.29,5.56A1.78,1.78,0,0,0,4.83,4.8l.64.44a2.57,2.57,0,0,1-2.19,1A2.87,2.87,0,0,1,.49,4.47,3.44,3.44,0,0,1,.49,2,3,3,0,0,1,3.91.3a2.23,2.23,0,0,1,1.47.83l-.63.49A1.73,1.73,0,0,0,3.31.95a2.1,2.1,0,0,0-2.18,2.3A2.06,2.06,0,0,0,3.29,5.56"/><path class="cls-3" d="M8.06,2.83c-.65,0-1,.57-1,1.26v2H6.26V0H7C7,.95,7,1.94,7,2.87a1.35,1.35,0,0,1,1.21-.69A1.37,1.37,0,0,1,9.69,3.74V6.12H8.93V4c0-.67-.19-1.17-.87-1.17"/><path class="cls-3" d="M12.71,2.18c1.3,0,1.9.87,1.84,2.25h-3A1.2,1.2,0,0,0,12.75,5.6,1.28,1.28,0,0,0,13.87,5l.53.43a1.92,1.92,0,0,1-1.65.79,1.86,1.86,0,0,1-2-2,1.86,1.86,0,0,1,2-2m1.08,1.68a1.07,1.07,0,0,0-1.54-1,1.12,1.12,0,0,0-.75,1Z"/><path class="cls-3" d="M15.62,6.12c0-1.28,0-2.61,0-3.84h.72c0,.16,0,.45,0,.63h0a1.34,1.34,0,0,1,1.25-.74c1,0,1.43.61,1.43,1.56V6.12h-.76V4c0-.68-.19-1.17-.87-1.17s-1,.57-1,1.26v2h-.76"/><polygon class="cls-4" points="168.3 16.27 204.3 43.27 168.3 70.27 132.3 43.27 168.3 16.27"/><path class="cls-3" d="M153.28,44.12c0-1.13-1.3-1-2.43-1v2c1.13,0,2.4.12,2.43-1M153,41.59c0-1-1.17-.86-2.17-.86v1.75C151.88,42.49,153,42.6,153,41.59Zm1.07,2.58c0,1.84-2.15,1.64-4,1.63V40.06h2c1,0,1.77.4,1.8,1.45a1.3,1.3,0,0,1-1,1.26A1.32,1.32,0,0,1,154.09,44.16Z"/><path class="cls-3" d="M155.6,40.07a.5.5,0,0,1,.51.49.51.51,0,1,1-.51-.49m.38,5.72h-.76V42H156v3.84Z"/><path class="cls-3" d="M157.31,45.79c0-1.28,0-2.61,0-3.84H158c0,.16,0,.48,0,.65h0a1.3,1.3,0,0,1,1.47-.72l0,.7a1.1,1.1,0,0,0-1.43,1.19v2h-.76"/><path class="cls-3" d="M161.37,45.85c-.75,0-1.13-.43-1.12-1.2V42.57h-.74V42h.74v-1.1H161V42h1v.62h-1v2c0,.44.13.64.54.65a1.09,1.09,0,0,0,.45-.1l0,.62a1.94,1.94,0,0,1-.65.11"/><path class="cls-3" d="M164.62,42.49c-.65,0-1,.57-1,1.26v2h-.76V39.67h.76c0,.95,0,1.94,0,2.87a1.35,1.35,0,0,1,1.21-.69,1.37,1.37,0,0,1,1.43,1.56v2.38h-.76V43.67c0-.67-.19-1.17-.87-1.17"/><path class="cls-3" d="M169.55,45.26a1.39,1.39,0,0,0,0-2.78,1.39,1.39,0,0,0,0,2.78m.13.64a1.59,1.59,0,0,1-1.35-.68h0v2.52h-.76V42h.75v.6h0a1.54,1.54,0,0,1,1.39-.7,2,2,0,0,1,0,4Z"/><polyline class="cls-3" points="173.45 45.79 172.69 45.79 172.69 42.73 172.69 39.67 173.45 39.67 173.45 42.73 173.45 45.79"/><path class="cls-3" d="M176.06,45.29A1.09,1.09,0,0,0,177.17,44c-.83,0-1.9,0-1.9.73,0,.44.35.59.79.6m-1.56-.58c0-1.24,1.4-1.26,2.67-1.3,0-.65-.35-.95-.95-.95a1.6,1.6,0,0,0-1.09.45l-.4-.49a2.26,2.26,0,0,1,1.57-.58,1.42,1.42,0,0,1,1.6,1.51,23.92,23.92,0,0,0,.06,2.44h-.69a2.56,2.56,0,0,1-.06-.55h0a1.47,1.47,0,0,1-1.29.65C175.1,45.89,174.5,45.52,174.5,44.7Z"/><path class="cls-3" d="M178.92,43.87a1.88,1.88,0,0,1,2-2,1.82,1.82,0,0,1,1.44.63l-.55.45a1.05,1.05,0,0,0-.88-.44,1.39,1.39,0,0,0,0,2.77,1.1,1.1,0,0,0,.92-.42l.51.46a1.77,1.77,0,0,1-1.43.6,1.9,1.9,0,0,1-2.07-2"/><path class="cls-3" d="M184.91,41.85c1.3,0,1.9.87,1.84,2.25h-3a1.2,1.2,0,0,0,1.25,1.17,1.28,1.28,0,0,0,1.12-.58l.53.43a1.92,1.92,0,0,1-1.65.79,2,2,0,0,1,0-4M186,43.53a1.07,1.07,0,0,0-1.54-1,1.12,1.12,0,0,0-.75,1Z"/></svg>