<svg id="Layer_1" data-name="Layer 1" xmlns="http://www.w3.org/2000/svg" viewBox="0 0 336.6 70.25"><defs><style>.cls-1{fill:#fcd1a5;}.cls-2{fill:#3d4752;}.cls-3{fill:none;stroke:#3d4752;stroke-miterlimit:10;stroke-width:0.9px;}.cls-4{fill:#fff;}</style></defs><title>erd-systems</title><rect class="cls-1" y="16.25" width="72" height="54"/><path class="cls-2" d="M27.13,41.63c0-1-1.15-.92-2.19-.92v1.85c1,0,2.19.09,2.19-.94m.81,0c0,1.51-1.39,1.69-3,1.62v2.52h-.8V40h1.75C27.08,40.05,27.94,40.45,27.94,41.63Z"/><path class="cls-2" d="M30.13,41.83c1.3,0,1.9.87,1.84,2.25h-3a1.2,1.2,0,0,0,1.25,1.17,1.28,1.28,0,0,0,1.12-.58l.53.43a1.92,1.92,0,0,1-1.65.79,2,2,0,0,1,0-4m1.08,1.68a1.07,1.07,0,0,0-1.54-1,1.12,1.12,0,0,0-.75,1Z"/><path class="cls-2" d="M33,45.77c0-1.28,0-2.61,0-3.84h.72c0,.16,0,.48,0,.65h0a1.3,1.3,0,0,1,1.47-.72l0,.7a1.1,1.1,0,0,0-1.43,1.19v2H33"/><path class="cls-2" d="M35.83,43.46c-.5-1.26.95-2,2.14-1.47a1.3,1.3,0,0,1,.6.47L38,42.9a1,1,0,0,0-.89-.48c-.38,0-.71.12-.71.5,0,.59.92.51,1.39.73a1.08,1.08,0,0,1,.78,1c.06,1.56-2.45,1.51-3.08.55l.54-.46a1.24,1.24,0,0,0,1,.53c.42,0,.76-.14.76-.56,0-.73-1.27-.51-1.76-.95a.84.84,0,0,1-.26-.3"/><path class="cls-2" d="M41.38,45.24a1.39,1.39,0,1,0-1.28-1.39,1.24,1.24,0,0,0,1.28,1.39m0-3.41a2,2,0,1,1-2.07,2A1.9,1.9,0,0,1,41.38,41.83Z"/><path class="cls-2" d="M44.51,45.77c0-1.28,0-2.61,0-3.84h.72c0,.16,0,.45,0,.63h0a1.34,1.34,0,0,1,1.25-.74c1,0,1.43.61,1.43,1.56v2.38h-.76V43.64c0-.68-.19-1.17-.87-1.17s-1,.57-1,1.26v2h-.76"/><path class="cls-2" d="M81,43.25a4.5,4.5,0,1,1-4.5-4.5A4.48,4.48,0,0,1,81,43.25Z"/><path class="cls-3" d="M81,43.25a4.5,4.5,0,1,1-4.5-4.5A4.48,4.48,0,0,1,81,43.25Z"/><path class="cls-3" d="M154.65,43.25h2.7m-7.2,0h2.7m-7.2,0h2.7m-7.2,0h2.7m-7.2,0h2.7m-7.2,0h2.7m-7.2,0h2.7m-7.2,0h2.7m-7.2,0h2.7m-7.2,0h2.7m-7.2,0h2.7m-7.2,0h2.7m-7.2,0h2.7m-7.2,0h2.7m-7.2,0h2.7m-7.2,0h2.7m-5.85,0h1.35m172.67,0h.35m-4.85,0h2.7m-7.2,0h2.7m-7.2,0h2.7m-7.2,0h2.7m-7.2,0h2.7m-7.2,0h2.7m-7.2,0h2.7m-7.2,0h2.7m-7.2,0h2.7m-7.2,0h2.7m-7.2,0h2.7m-7.2,0h2.7m-7.2,0h2.7m-20.57,0h2.7m-7.2,0h2.7m-7.2,0h2.7m-7.2,0h2.7m24.3,0h2.7m-7.2,0h2.7m-7.2,0h2.7m-7.2,0h2.7m-20.7,0h2.7m-7.2,0h2.7m-7.2,0h2.7"/><polygon class="cls-2" points="87.44 45.32 81 43.25 87.44 41.14 87.44 45.32"/><path class="cls-2" d="M82.49,43.25,87,44.69V41.77Zm5.4,2.7L81,43.7l0-.45,0-.45,6.93-2.25Z"/><rect class="cls-1" x="264.61" y="16.23" width="72" height="54"/><polyline class="cls-2" points="286.31 45.04 288.87 45.04 288.87 45.39 288.87 45.75 285.51 45.75 285.51 42.88 285.51 40.02 286.31 40.02 286.31 42.53 286.31 45.04"/><path class="cls-2" d="M291.28,45.22A1.39,1.39,0,1,0,290,43.82a1.24,1.24,0,0,0,1.28,1.39m0-3.41a2,2,0,1,1-2.07,2A1.9,1.9,0,0,1,291.28,41.8Z"/><path class="cls-2" d="M294.15,43.83a1.88,1.88,0,0,1,2-2,1.82,1.82,0,0,1,1.44.63l-.55.45a1.05,1.05,0,0,0-.88-.44,1.39,1.39,0,0,0,0,2.77,1.1,1.1,0,0,0,.92-.42l.51.46a1.77,1.77,0,0,1-1.43.6,1.9,1.9,0,0,1-2.07-2"/><path class="cls-2" d="M299.68,45.25a1.09,1.09,0,0,0,1.11-1.33c-.83,0-1.9,0-1.9.73,0,.44.35.59.79.6m-1.56-.58c0-1.24,1.4-1.26,2.67-1.3,0-.65-.35-.95-.95-.95a1.6,1.6,0,0,0-1.09.45l-.4-.49a2.26,2.26,0,0,1,1.57-.58,1.42,1.42,0,0,1,1.6,1.51,23.92,23.92,0,0,0,.06,2.44h-.69a2.56,2.56,0,0,1-.06-.55h0a1.47,1.47,0,0,1-1.29.65C298.72,45.85,298.12,45.48,298.12,44.66Z"/><path class="cls-2" d="M303.94,45.81c-.75,0-1.13-.43-1.12-1.2V42.53h-.74v-.62h.74v-1.1h.75v1.1h1v.62h-1v2c0,.44.13.64.54.65a1.09,1.09,0,0,0,.45-.1l0,.62a1.94,1.94,0,0,1-.65.11"/><path class="cls-2" d="M305.77,40a.5.5,0,0,1,.51.49.51.51,0,1,1-.51-.49m.38,5.72h-.76V41.91h.76v3.84Z"/><path class="cls-2" d="M309.29,45.22A1.39,1.39,0,1,0,308,43.82a1.24,1.24,0,0,0,1.28,1.39m0-3.41a2,2,0,1,1-2.07,2A1.9,1.9,0,0,1,309.29,41.8Z"/><path class="cls-2" d="M312.42,45.75c0-1.28,0-2.61,0-3.84h.72c0,.16,0,.45,0,.63h0a1.34,1.34,0,0,1,1.25-.74c1,0,1.43.61,1.43,1.56v2.38h-.76V43.62c0-.68-.19-1.17-.87-1.17s-1,.57-1,1.26v2h-.76"/><path class="cls-2" d="M97.74,36.21c0-1.13-1.3-1-2.43-1v2c1.13,0,2.4.12,2.43-1m-.26-2.54c0-1-1.17-.86-2.17-.86v1.75C96.34,34.57,97.48,34.69,97.48,33.68Zm1.07,2.58c0,1.84-2.15,1.64-4,1.63V32.14h2c1,0,1.77.41,1.8,1.45a1.3,1.3,0,0,1-1,1.26A1.32,1.32,0,0,1,98.55,36.25Z"/><path class="cls-2" d="M101.48,37.34A1.39,1.39,0,1,0,100.2,36a1.24,1.24,0,0,0,1.28,1.39m0-3.41a2,2,0,1,1-2.07,2A1.9,1.9,0,0,1,101.48,33.93Z"/><path class="cls-2" d="M104.61,37.88c0-1.28,0-2.61,0-3.84h.72c0,.16,0,.48,0,.65h0a1.3,1.3,0,0,1,1.47-.72l0,.7a1.1,1.1,0,0,0-1.43,1.19v2h-.76"/><path class="cls-2" d="M107.54,37.88c0-1.28,0-2.61,0-3.84h.72c0,.16,0,.45,0,.63h0a1.34,1.34,0,0,1,1.25-.74c1,0,1.43.61,1.43,1.56v2.38h-.76V35.75c0-.68-.19-1.17-.87-1.17s-1,.57-1,1.26v2h-.76"/><path class="cls-2" d="M114.66,32.16a.5.5,0,0,1,.51.49.51.51,0,1,1-.51-.49m.38,5.72h-.76V34H115v3.84Z"/><path class="cls-2" d="M116.37,37.88c0-1.28,0-2.61,0-3.84h.72c0,.16,0,.45,0,.63h0a1.34,1.34,0,0,1,1.25-.74c1,0,1.43.61,1.43,1.56v2.38H119V35.75c0-.68-.19-1.17-.87-1.17s-1,.57-1,1.26v2h-.76"/><path class="cls-2" d="M3.49,4.46c0-1.13-1.3-1-2.43-1v2c1.13,0,2.4.12,2.43-1M3.24,1.92c0-1-1.17-.86-2.17-.86V2.81C2.09,2.82,3.24,2.93,3.24,1.92ZM4.3,4.5c0,1.84-2.15,1.64-4,1.63V.39h2c1,0,1.77.4,1.8,1.45A1.3,1.3,0,0,1,3,3.1,1.32,1.32,0,0,1,4.3,4.5Z"/><path class="cls-2" d="M6.7,5.62A1.09,1.09,0,0,0,7.81,4.29c-.83,0-1.9,0-1.9.73,0,.44.35.59.79.6M5.14,5c0-1.24,1.4-1.26,2.67-1.3,0-.65-.35-.95-.95-.95a1.6,1.6,0,0,0-1.09.45l-.4-.49a2.26,2.26,0,0,1,1.57-.58,1.42,1.42,0,0,1,1.6,1.51A23.93,23.93,0,0,0,8.6,6.12H7.91a2.56,2.56,0,0,1-.06-.55h0a1.47,1.47,0,0,1-1.29.65C5.74,6.22,5.14,5.86,5.14,5Z"/><path class="cls-2" d="M9.56,4.2a1.88,1.88,0,0,1,2-2,1.82,1.82,0,0,1,1.44.63l-.55.45a1.05,1.05,0,0,0-.88-.44A1.24,1.24,0,0,0,10.36,4.2a1.24,1.24,0,0,0,1.26,1.39,1.1,1.1,0,0,0,.92-.42l.51.46a1.77,1.77,0,0,1-1.43.6,1.9,1.9,0,0,1-2.07-2"/><path class="cls-2" d="M15.63,2.83c-.65,0-1,.57-1,1.26v2h-.76V0h.76c0,.95,0,1.94,0,2.87a1.35,1.35,0,0,1,1.21-.69,1.37,1.37,0,0,1,1.43,1.56V6.12H16.5V4c0-.67-.19-1.17-.87-1.17"/><path class="cls-2" d="M19.29,2.92a1.34,1.34,0,0,1,1.22-.74,1.2,1.2,0,0,1,1.19.77A1.41,1.41,0,0,1,23,2.18c1,0,1.43.61,1.43,1.56V6.12h-.76V4c0-.66-.19-1.17-.85-1.17-1.39,0-.87,2-1,3.3H21.1V3.84c0-.61-.21-1-.81-1s-1,.58-1,1.26v2h-.76c0-1.28,0-2.61,0-3.84h.72c0,.16,0,.45,0,.63h0"/><path class="cls-2" d="M27,5.62a1.09,1.09,0,0,0,1.11-1.33c-.83,0-1.9,0-1.9.73,0,.44.35.59.79.6M25.45,5c0-1.24,1.4-1.26,2.67-1.3,0-.65-.35-.95-.95-.95a1.6,1.6,0,0,0-1.09.45l-.4-.49a2.26,2.26,0,0,1,1.57-.58,1.42,1.42,0,0,1,1.6,1.51,23.93,23.93,0,0,0,.06,2.44h-.69a2.56,2.56,0,0,1-.06-.55h0a1.47,1.47,0,0,1-1.29.65C26,6.22,25.45,5.86,25.45,5Z"/><path class="cls-2" d="M30.12,6.12c0-1.28,0-2.61,0-3.84h.72c0,.16,0,.45,0,.63h0a1.34,1.34,0,0,1,1.25-.74c1,0,1.43.61,1.43,1.56V6.12h-.76V4c0-.68-.19-1.17-.87-1.17s-1,.57-1,1.26v2h-.76"/><polygon class="cls-2" points="255.37 43.25 255.46 43.7 255.37 43.7 255.37 42.8 255.46 42.8 255.37 43.25"/><path class="cls-4" d="M264.37,43.25a4.5,4.5,0,1,1-4.5-4.5A4.48,4.48,0,0,1,264.37,43.25Z"/><path class="cls-3" d="M264.37,43.25a4.5,4.5,0,1,1-4.5-4.5A4.48,4.48,0,0,1,264.37,43.25Z"/><path class="cls-2" d="M205.23,52.7c0-1.13-1.3-1-2.43-1v2c1.13,0,2.4.12,2.43-1M205,50.16c0-1-1.17-.86-2.17-.86v1.75C203.82,51.06,205,51.18,205,50.16ZM206,52.74c0,1.84-2.15,1.64-4,1.63V48.63h2c1,0,1.77.4,1.8,1.45a1.3,1.3,0,0,1-1,1.26A1.32,1.32,0,0,1,206,52.74Z"/><path class="cls-2" d="M207.54,48.65a.5.5,0,0,1,.51.49.51.51,0,1,1-.51-.49m.38,5.72h-.76V50.53h.76v3.84Z"/><path class="cls-2" d="M209.25,54.37c0-1.28,0-2.61,0-3.84h.72c0,.16,0,.48,0,.65h0a1.3,1.3,0,0,1,1.47-.72l0,.7A1.1,1.1,0,0,0,210,52.35v2h-.76"/><path class="cls-2" d="M213.31,54.43c-.75,0-1.13-.43-1.12-1.2V51.15h-.74v-.62h.74v-1.1h.75v1.1h1v.62h-1v2c0,.44.13.64.54.65a1.09,1.09,0,0,0,.45-.1l0,.62a1.94,1.94,0,0,1-.65.11"/><path class="cls-2" d="M216.57,51.07c-.65,0-1,.57-1,1.26v2h-.76V48.24h.76c0,.95,0,1.94,0,2.87a1.35,1.35,0,0,1,1.21-.69A1.37,1.37,0,0,1,218.19,52v2.38h-.76V52.25c0-.67-.19-1.17-.87-1.17"/><path class="cls-2" d="M221.49,53.83a1.39,1.39,0,0,0,0-2.78,1.39,1.39,0,0,0,0,2.78m.13.64a1.59,1.59,0,0,1-1.35-.68h0v2.52h-.76V50.53h.75v.6h0a1.54,1.54,0,0,1,1.39-.7,2,2,0,0,1,0,4Z"/><polyline class="cls-2" points="225.39 54.37 224.63 54.37 224.63 51.31 224.63 48.24 225.39 48.24 225.39 51.31 225.39 54.37"/><path class="cls-2" d="M228,53.87a1.09,1.09,0,0,0,1.11-1.33c-.83,0-1.9,0-1.9.73,0,.44.35.59.79.6m-1.56-.58c0-1.24,1.4-1.26,2.67-1.3,0-.65-.35-.95-.95-.95a1.6,1.6,0,0,0-1.09.45l-.4-.49a2.26,2.26,0,0,1,1.57-.58,1.42,1.42,0,0,1,1.6,1.51,23.92,23.92,0,0,0,.06,2.44h-.69a2.56,2.56,0,0,1-.06-.55h0a1.47,1.47,0,0,1-1.29.65C227,54.47,226.44,54.1,226.44,53.28Z"/><path class="cls-2" d="M230.86,52.45a1.88,1.88,0,0,1,2-2,1.82,1.82,0,0,1,1.44.63l-.55.45a1.05,1.05,0,0,0-.88-.44,1.39,1.39,0,0,0,0,2.77,1.1,1.1,0,0,0,.92-.42l.51.46a1.77,1.77,0,0,1-1.43.6,1.9,1.9,0,0,1-2.07-2"/><path class="cls-2" d="M236.85,50.42c1.3,0,1.9.87,1.84,2.25h-3a1.2,1.2,0,0,0,1.25,1.17,1.28,1.28,0,0,0,1.12-.58l.53.43a1.92,1.92,0,0,1-1.65.79,2,2,0,0,1,0-4m1.08,1.68a1.07,1.07,0,0,0-1.54-1,1.12,1.12,0,0,0-.75,1Z"/><path class="cls-2" d="M243.59,53.83a1.39,1.39,0,1,0-1.28-1.39,1.24,1.24,0,0,0,1.28,1.39m0-3.41a2,2,0,1,1-2.07,2A1.9,1.9,0,0,1,243.59,50.42Z"/><path class="cls-2" d="M248.31,48.8c-.83,0-.66.93-.68,1.73h.89v.62h-.89v3.22h-.76V51.15h-.76v-.62h.76v-.8c0-1.16.74-1.77,1.91-1.52l-.09.66a1.35,1.35,0,0,0-.38-.06"/></svg>