<svg id="Layer_1" data-name="Layer 1" xmlns="http://www.w3.org/2000/svg" viewBox="0 0 336.6 69.73"><defs><style>.cls-1{fill:none;}.cls-1,.cls-2{stroke:#3d4752;stroke-miterlimit:10;stroke-width:0.9px;}.cls-2{fill:#fcd1a5;}.cls-3{fill:#3d4752;}.cls-4{fill:#fff;}</style></defs><title>erd-systems</title><line class="cls-1" x1="90.46" y1="43.14" x2="246.28" y2="43.14"/><rect class="cls-2" x="0.46" y="16.55" width="90" height="18"/><rect class="cls-1" x="0.46" y="16.39" width="90" height="52.88"/><line class="cls-1" x1="0.46" y1="34.39" x2="90.46" y2="34.39"/><path class="cls-3" d="M36.59,23.77c0-1-1.15-.92-2.19-.92v1.85c1,0,2.19.09,2.19-.94m.81,0c0,1.51-1.39,1.69-3,1.62V27.9h-.8V22.17h1.75C36.54,22.19,37.4,22.58,37.4,23.77Z"/><path class="cls-3" d="M39.58,24c1.3,0,1.9.87,1.84,2.25h-3a1.2,1.2,0,0,0,1.25,1.17,1.28,1.28,0,0,0,1.12-.58l.53.43a1.92,1.92,0,0,1-1.65.79,1.86,1.86,0,0,1-2-2,1.86,1.86,0,0,1,2-2m1.08,1.68a1.07,1.07,0,0,0-1.54-1,1.12,1.12,0,0,0-.75,1Z"/><path class="cls-3" d="M42.49,27.9c0-1.28,0-2.61,0-3.84h.72c0,.16,0,.48,0,.65h0A1.3,1.3,0,0,1,44.71,24l0,.7a1.1,1.1,0,0,0-1.43,1.19v2h-.76"/><path class="cls-3" d="M45.29,25.59c-.5-1.26.95-2,2.14-1.47a1.3,1.3,0,0,1,.6.47L47.5,25a1,1,0,0,0-.89-.48c-.38,0-.71.12-.71.5,0,.59.92.51,1.39.73a1.08,1.08,0,0,1,.78,1c.06,1.56-2.45,1.51-3.08.55l.54-.46a1.24,1.24,0,0,0,1,.53c.42,0,.76-.14.76-.56,0-.73-1.27-.51-1.76-.95a.84.84,0,0,1-.26-.3"/><path class="cls-3" d="M50.83,27.37A1.24,1.24,0,0,0,52.11,26a1.28,1.28,0,1,0-2.56,0,1.24,1.24,0,0,0,1.28,1.39m0-3.41a2,2,0,1,1,0,4,1.9,1.9,0,0,1-2.07-2A1.89,1.89,0,0,1,50.83,24Z"/><path class="cls-3" d="M54,27.9c0-1.28,0-2.61,0-3.84h.72c0,.16,0,.45,0,.63h0A1.34,1.34,0,0,1,56,24c1,0,1.43.61,1.43,1.56V27.9h-.76V25.77c0-.68-.19-1.17-.87-1.17s-1,.57-1,1.26v2H54"/><line class="cls-1" x1="235.05" y1="55.16" x2="235.05" y2="31.13"/><line class="cls-1" x1="239.23" y1="31.13" x2="239.23" y2="55.16"/><line class="cls-1" x1="90.46" y1="54.64" x2="100.36" y2="43.12"/><line class="cls-1" x1="100.36" y1="43.12" x2="101.21" y2="42.08"/><path class="cls-3" d="M118.74,35c0-1.13-1.3-1-2.43-1v2c1.13,0,2.4.12,2.43-1m-.26-2.54c0-1-1.17-.86-2.17-.86v1.75C117.34,33.33,118.48,33.44,118.48,32.43ZM119.55,35c0,1.84-2.15,1.64-4,1.63V30.9h2c1,0,1.77.4,1.8,1.45a1.3,1.3,0,0,1-1,1.26A1.32,1.32,0,0,1,119.55,35Z"/><path class="cls-3" d="M122.48,36.1a1.39,1.39,0,1,0-1.28-1.39,1.24,1.24,0,0,0,1.28,1.39m0-3.41a2,2,0,1,1-2.07,2A1.9,1.9,0,0,1,122.48,32.69Z"/><path class="cls-3" d="M125.61,36.63c0-1.28,0-2.61,0-3.84h.72c0,.16,0,.48,0,.65h0a1.3,1.3,0,0,1,1.47-.72l0,.7a1.1,1.1,0,0,0-1.43,1.19v2h-.76"/><path class="cls-3" d="M128.54,36.63c0-1.28,0-2.61,0-3.84h.72c0,.16,0,.45,0,.63h0a1.34,1.34,0,0,1,1.25-.74c1,0,1.43.61,1.43,1.56v2.38h-.76V34.5c0-.68-.19-1.17-.87-1.17s-1,.57-1,1.26v2h-.76"/><path class="cls-3" d="M135.66,30.91a.5.5,0,0,1,.51.49.51.51,0,1,1-.51-.49m.38,5.72h-.76V32.79H136v3.84Z"/><path class="cls-3" d="M137.37,36.63c0-1.28,0-2.61,0-3.84h.72c0,.16,0,.45,0,.63h0a1.34,1.34,0,0,1,1.25-.74c1,0,1.43.61,1.43,1.56v2.38H140V34.5c0-.68-.19-1.17-.87-1.17s-1,.57-1,1.26v2h-.76"/><line class="cls-1" x1="100.36" y1="42.02" x2="101.08" y2="43.14"/><path class="cls-3" d="M185.11,52c0-1.13-1.3-1-2.43-1v2c1.13,0,2.4.12,2.43-1m-.26-2.54c0-1-1.17-.86-2.17-.86v1.75C183.71,50.35,184.85,50.46,184.85,49.45ZM185.92,52c0,1.84-2.15,1.64-4,1.63V47.92h2c1,0,1.77.4,1.8,1.45a1.3,1.3,0,0,1-1,1.26A1.32,1.32,0,0,1,185.92,52Z"/><path class="cls-3" d="M187.43,47.94a.5.5,0,0,1,.51.49.51.51,0,1,1-.51-.49m.38,5.72H187V49.81h.76v3.84Z"/><path class="cls-3" d="M189.14,53.65c0-1.28,0-2.61,0-3.84h.72c0,.16,0,.48,0,.65h0a1.3,1.3,0,0,1,1.47-.72l0,.7a1.1,1.1,0,0,0-1.43,1.19v2h-.76"/><path class="cls-3" d="M193.19,53.72c-.75,0-1.13-.43-1.12-1.2V50.44h-.74v-.62h.74v-1.1h.75v1.1h1v.62h-1v2c0,.44.13.64.54.65a1.09,1.09,0,0,0,.45-.1l0,.62a1.94,1.94,0,0,1-.65.11"/><path class="cls-3" d="M196.45,50.36c-.65,0-1,.57-1,1.26v2h-.76V47.53h.76c0,.95,0,1.94,0,2.87a1.35,1.35,0,0,1,1.21-.69,1.37,1.37,0,0,1,1.43,1.56v2.38h-.76V51.53c0-.67-.19-1.17-.87-1.17"/><path class="cls-3" d="M201.38,53.12a1.39,1.39,0,0,0,0-2.78,1.39,1.39,0,0,0,0,2.78m.13.64a1.59,1.59,0,0,1-1.35-.68h0V55.6h-.76V49.81h.75v.6h0a1.54,1.54,0,0,1,1.39-.7,2,2,0,0,1,0,4Z"/><polyline class="cls-3" points="205.28 53.65 204.52 53.65 204.52 50.59 204.52 47.53 205.28 47.53 205.28 50.59 205.28 53.65"/><path class="cls-3" d="M207.89,53.15A1.09,1.09,0,0,0,209,51.82c-.83,0-1.9,0-1.9.73,0,.44.35.59.79.6m-1.56-.58c0-1.24,1.4-1.26,2.67-1.3,0-.65-.35-.95-.95-.95a1.6,1.6,0,0,0-1.09.45l-.4-.49a2.26,2.26,0,0,1,1.57-.58,1.42,1.42,0,0,1,1.6,1.51,23.92,23.92,0,0,0,.06,2.44h-.69a2.56,2.56,0,0,1-.06-.55h0a1.47,1.47,0,0,1-1.29.65C206.92,53.75,206.33,53.39,206.33,52.57Z"/><path class="cls-3" d="M210.75,51.73a1.88,1.88,0,0,1,2-2,1.82,1.82,0,0,1,1.44.63l-.55.45a1.05,1.05,0,0,0-.88-.44,1.39,1.39,0,0,0,0,2.77,1.1,1.1,0,0,0,.92-.42l.51.46a1.77,1.77,0,0,1-1.43.6,1.9,1.9,0,0,1-2.07-2"/><path class="cls-3" d="M216.73,49.71c1.3,0,1.9.87,1.84,2.25h-3a1.2,1.2,0,0,0,1.25,1.17,1.28,1.28,0,0,0,1.12-.58l.53.43a1.92,1.92,0,0,1-1.65.79,2,2,0,0,1,0-4m1.08,1.68a1.07,1.07,0,0,0-1.54-1,1.12,1.12,0,0,0-.75,1Z"/><path class="cls-3" d="M223.48,53.12a1.39,1.39,0,1,0-1.28-1.39,1.24,1.24,0,0,0,1.28,1.39m0-3.41a2,2,0,1,1-2.07,2A1.9,1.9,0,0,1,223.48,49.71Z"/><path class="cls-3" d="M228.2,48.09c-.83,0-.66.93-.68,1.73h.89v.62h-.89v3.22h-.76V50.44H226v-.62h.76V49c0-1.16.74-1.77,1.91-1.52l-.09.66a1.35,1.35,0,0,0-.38-.06"/><path class="cls-3" d="M3.29,5.31a1.78,1.78,0,0,0,1.54-.76L5.47,5A2.57,2.57,0,0,1,3.28,6,2.87,2.87,0,0,1,.49,4.22a3.44,3.44,0,0,1,0-2.45A3,3,0,0,1,3.91.05,2.23,2.23,0,0,1,5.37.89l-.63.49A1.73,1.73,0,0,0,3.31.7,2.1,2.1,0,0,0,1.14,3,2.06,2.06,0,0,0,3.29,5.31"/><path class="cls-3" d="M6.25,5.88c0-1.28,0-2.61,0-3.84h.72c0,.16,0,.48,0,.65H7A1.3,1.3,0,0,1,8.47,2l0,.7A1.1,1.1,0,0,0,7,3.86v2H6.25"/><path class="cls-3" d="M10.85,5.34a1.24,1.24,0,0,0,1.28-1.39,1.23,1.23,0,0,0-1.28-1.39A1.23,1.23,0,0,0,9.57,3.95a1.24,1.24,0,0,0,1.28,1.39m0-3.41a1.9,1.9,0,0,1,2.07,2,1.91,1.91,0,0,1-2.07,2,1.9,1.9,0,0,1-2.07-2A1.89,1.89,0,0,1,10.85,1.93Z"/><path class="cls-3" d="M14.26,2c.3,1,.57,2,.88,2.93L16.06,2h.8c.32,1,.61,2,.95,2.93L18.67,2h.8L18.2,5.88h-.79c-.32-1-.62-1.94-1-2.88l-.94,2.88h-.79L13.43,2h.83"/><polyline class="cls-3" points="20.31 0.14 20.97 0.14 20.97 1.15 20.97 2.17 20.31 2.17 20.31 1.15 20.31 0.14"/><path class="cls-3" d="M22.22,3.56c-.5-1.26.95-2,2.14-1.47a1.3,1.3,0,0,1,.6.47L24.43,3a1,1,0,0,0-.89-.48c-.38,0-.71.12-.71.5,0,.59.92.51,1.39.73a1.08,1.08,0,0,1,.78,1c.06,1.56-2.45,1.51-3.08.55l.54-.46a1.24,1.24,0,0,0,1,.53c.42,0,.76-.14.76-.56,0-.73-1.27-.51-1.76-.95a.84.84,0,0,1-.26-.3"/><polyline class="cls-3" points="28.8 5.88 28 5.88 28 3.01 28 0.14 31.58 0.14 31.58 0.49 31.58 0.84 28.8 0.84 28.8 1.74 28.8 2.63 31.4 2.63 31.4 2.97 31.4 3.31 28.8 3.31 28.8 4.59 28.8 5.88"/><path class="cls-3" d="M34.38,5.34a1.24,1.24,0,0,0,1.28-1.39,1.28,1.28,0,1,0-2.56,0,1.24,1.24,0,0,0,1.28,1.39m0-3.41a1.9,1.9,0,0,1,2.07,2,2.07,2.07,0,0,1-4.14,0A1.89,1.89,0,0,1,34.38,1.93Z"/><path class="cls-3" d="M39.32,5.34A1.24,1.24,0,0,0,40.6,3.95a1.28,1.28,0,1,0-2.56,0,1.24,1.24,0,0,0,1.28,1.39m0-3.41a1.9,1.9,0,0,1,2.07,2,2.07,2.07,0,0,1-4.14,0A1.89,1.89,0,0,1,39.32,1.93Z"/><path class="cls-3" d="M43.67,5.94c-.75,0-1.13-.43-1.12-1.2V2.66h-.74V2h.74V.93h.75V2h1v.62h-1v2c0,.44.13.64.54.65a1.09,1.09,0,0,0,.45-.1l0,.62a1.94,1.94,0,0,1-.65.11"/><rect class="cls-2" x="246.28" y="16.47" width="90" height="18"/><rect class="cls-1" x="246.28" y="16.39" width="90" height="52.88"/><line class="cls-1" x1="246.28" y1="34.39" x2="336.28" y2="34.39"/><polyline class="cls-3" points="276.98 27.19 279.54 27.19 279.54 27.55 279.54 27.91 276.18 27.91 276.18 25.04 276.18 22.17 276.98 22.17 276.98 24.68 276.98 27.19"/><path class="cls-3" d="M281.95,27.37A1.24,1.24,0,0,0,283.23,26a1.28,1.28,0,1,0-2.56,0,1.24,1.24,0,0,0,1.28,1.39m0-3.41a2,2,0,1,1,0,4,1.9,1.9,0,0,1-2.07-2A1.89,1.89,0,0,1,281.95,24Z"/><path class="cls-3" d="M284.82,26a1.88,1.88,0,0,1,2-2,1.82,1.82,0,0,1,1.44.63l-.55.45a1.05,1.05,0,0,0-.88-.44A1.24,1.24,0,0,0,285.63,26a1.24,1.24,0,0,0,1.26,1.39,1.1,1.1,0,0,0,.92-.42l.51.46a1.77,1.77,0,0,1-1.43.6,1.9,1.9,0,0,1-2.07-2"/><path class="cls-3" d="M290.36,27.4a1.09,1.09,0,0,0,1.11-1.33c-.83,0-1.9,0-1.9.73,0,.44.35.59.79.6m-1.56-.58c0-1.24,1.4-1.26,2.67-1.3,0-.65-.35-.95-.95-.95a1.6,1.6,0,0,0-1.09.45l-.4-.49a2.26,2.26,0,0,1,1.57-.58,1.42,1.42,0,0,1,1.6,1.51,23.92,23.92,0,0,0,.06,2.44h-.69a2.56,2.56,0,0,1-.06-.55h0a1.47,1.47,0,0,1-1.29.65C289.39,28,288.79,27.64,288.79,26.82Z"/><path class="cls-3" d="M294.61,28c-.75,0-1.13-.43-1.12-1.2V24.69h-.74v-.62h.74V23h.75v1.1h1v.62h-1v2c0,.44.13.64.54.65a1.09,1.09,0,0,0,.45-.1l0,.62a1.94,1.94,0,0,1-.65.11"/><path class="cls-3" d="M296.44,22.19a.5.5,0,0,1,.51.49.51.51,0,1,1-.51-.49m.38,5.72h-.76V24.07h.76v3.84Z"/><path class="cls-3" d="M300,27.37A1.24,1.24,0,0,0,301.24,26a1.28,1.28,0,1,0-2.56,0A1.24,1.24,0,0,0,300,27.37M300,24a2,2,0,1,1,0,4,1.9,1.9,0,0,1-2.07-2A1.89,1.89,0,0,1,300,24Z"/><path class="cls-3" d="M303.09,27.91c0-1.28,0-2.61,0-3.84h.72c0,.16,0,.45,0,.63h0a1.34,1.34,0,0,1,1.25-.74c1,0,1.43.61,1.43,1.56v2.38h-.76V25.77c0-.68-.19-1.17-.87-1.17s-1,.57-1,1.26v2h-.76"/><line class="cls-1" x1="100.36" y1="43.16" x2="90.46" y2="31.64"/><path class="cls-4" d="M109,43.12a4.5,4.5,0,1,1-4.5-4.5A4.48,4.48,0,0,1,109,43.12Z"/><path class="cls-1" d="M109,43.12a4.5,4.5,0,1,1-4.5-4.5A4.48,4.48,0,0,1,109,43.12Z"/></svg>